<?xml version="1.0" standalone="no"?>
<!DOCTYPE svg PUBLIC "-//W3C//DTD SVG 20010904//EN"
 "http://www.w3.org/TR/2001/REC-SVG-20010904/DTD/svg10.dtd">
<svg version="1.0" xmlns="http://www.w3.org/2000/svg"
 width="34.000000pt" height="35.000000pt" viewBox="0 0 34.000000 35.000000"
 preserveAspectRatio="xMidYMid meet">
<metadata>
Created by potrace 1.15, written by Peter Selinger 2001-2017
</metadata>
<g transform="translate(0.000000,35.000000) scale(0.100000,-0.100000)"
fill="#000000" stroke="none">
<path d="M74 330 c-41 -26 -66 -85 -68 -157 -1 -53 1 -58 21 -61 30 -4 30 -38
1 -46 -19 -5 -21 -8 -8 -16 13 -8 12 -10 -2 -10 -29 0 -21 -28 10 -33 23 -5
246 -3 295 1 18 2 25 32 6 32 -5 0 -8 4 -4 9 3 6 -4 15 -15 21 -27 14 -26 38
3 42 20 3 22 8 20 65 -2 74 -25 129 -67 154 -44 27 -150 26 -192 -1z m111
-129 c17 -8 24 -16 18 -18 -15 -5 -17 -29 -4 -37 14 -9 41 4 41 19 0 7 -6 15
-12 18 -22 7 -1 19 21 12 47 -15 12 -120 -49 -145 -27 -11 -36 -11 -67 4 -45
21 -39 29 10 14 42 -13 64 -1 53 27 -5 13 -14 16 -40 11 -76 -14 -114 36 -61
82 14 12 25 29 25 38 0 15 2 15 18 2 9 -8 31 -20 47 -27z"/>
</g>
</svg>
